<svg height="1230" width="720" xmlns="http://www.w3.org/2000/svg">
<rect height="1230" fill="#555" width="720"></rect>
<text fill="#7f7" font-family="Courier New" font-size="12" xml:space="preserve">
<tspan x="10" y="26">4 megabytes installed</tspan>
<tspan x="10" y="42"></tspan>
<tspan x="10" y="58">node_modules</tspan>
<tspan x="10" y="74">└─┬ yeoman-doctor@2.1.0 </tspan>
<tspan x="10" y="90">  ├─┬ bin-version-check@2.1.0 </tspan>
<tspan x="10" y="106">  │ ├─┬ bin-version@1.0.4 </tspan>
<tspan x="10" y="122">  │ │ └─┬ find-versions@1.2.1 </tspan>
<tspan x="10" y="138">  │ │   ├── array-uniq@1.0.3 </tspan>
<tspan x="10" y="154">  │ │   ├── get-stdin@4.0.1 </tspan>
<tspan x="10" y="170">  │ │   ├─┬ meow@3.7.0 </tspan>
<tspan x="10" y="186">  │ │   │ ├─┬ camelcase-keys@2.1.0 </tspan>
<tspan x="10" y="202">  │ │   │ │ └── camelcase@2.1.1 </tspan>
<tspan x="10" y="218">  │ │   │ ├── decamelize@1.2.0 </tspan>
<tspan x="10" y="234">  │ │   │ ├─┬ loud-rejection@1.6.0 </tspan>
<tspan x="10" y="250">  │ │   │ │ ├─┬ currently-unhandled@0.4.1 </tspan>
<tspan x="10" y="266">  │ │   │ │ │ └── array-find-index@1.0.2 </tspan>
<tspan x="10" y="282">  │ │   │ │ └── signal-exit@3.0.2 </tspan>
<tspan x="10" y="298">  │ │   │ ├── map-obj@1.0.1 </tspan>
<tspan x="10" y="314">  │ │   │ ├─┬ normalize-package-data@2.3.8 </tspan>
<tspan x="10" y="330">  │ │   │ │ ├── hosted-git-info@2.4.2 </tspan>
<tspan x="10" y="346">  │ │   │ │ ├─┬ is-builtin-module@1.0.0 </tspan>
<tspan x="10" y="362">  │ │   │ │ │ └── builtin-modules@1.1.1 </tspan>
<tspan x="10" y="378">  │ │   │ │ └─┬ validate-npm-package-license@3.0.1 </tspan>
<tspan x="10" y="394">  │ │   │ │   ├─┬ spdx-correct@1.0.2 </tspan>
<tspan x="10" y="410">  │ │   │ │   │ └── spdx-license-ids@1.2.2 </tspan>
<tspan x="10" y="426">  │ │   │ │   └── spdx-expression-parse@1.0.4 </tspan>
<tspan x="10" y="442">  │ │   │ ├── object-assign@4.1.1 </tspan>
<tspan x="10" y="458">  │ │   │ ├─┬ read-pkg-up@1.0.1 </tspan>
<tspan x="10" y="474">  │ │   │ │ ├─┬ find-up@1.1.2 </tspan>
<tspan x="10" y="490">  │ │   │ │ │ ├── path-exists@2.1.0 </tspan>
<tspan x="10" y="506">  │ │   │ │ │ └─┬ pinkie-promise@2.0.1 </tspan>
<tspan x="10" y="522">  │ │   │ │ │   └── pinkie@2.0.4 </tspan>
<tspan x="10" y="538">  │ │   │ │ └─┬ read-pkg@1.1.0 </tspan>
<tspan x="10" y="554">  │ │   │ │   ├─┬ load-json-file@1.1.0 </tspan>
<tspan x="10" y="570">  │ │   │ │   │ ├── graceful-fs@4.1.11 </tspan>
<tspan x="10" y="586">  │ │   │ │   │ ├─┬ parse-json@2.2.0 </tspan>
<tspan x="10" y="602">  │ │   │ │   │ │ └─┬ error-ex@1.3.1 </tspan>
<tspan x="10" y="618">  │ │   │ │   │ │   └── is-arrayish@0.2.1 </tspan>
<tspan x="10" y="634">  │ │   │ │   │ ├── pify@2.3.0 </tspan>
<tspan x="10" y="650">  │ │   │ │   │ └─┬ strip-bom@2.0.0 </tspan>
<tspan x="10" y="666">  │ │   │ │   │   └── is-utf8@0.2.1 </tspan>
<tspan x="10" y="682">  │ │   │ │   └── path-type@1.1.0 </tspan>
<tspan x="10" y="698">  │ │   │ ├─┬ redent@1.0.0 </tspan>
<tspan x="10" y="714">  │ │   │ │ ├─┬ indent-string@2.1.0 </tspan>
<tspan x="10" y="730">  │ │   │ │ │ └─┬ repeating@2.0.1 </tspan>
<tspan x="10" y="746">  │ │   │ │ │   └─┬ is-finite@1.0.2 </tspan>
<tspan x="10" y="762">  │ │   │ │ │     └── number-is-nan@1.0.1 </tspan>
<tspan x="10" y="778">  │ │   │ │ └── strip-indent@1.0.1 </tspan>
<tspan x="10" y="794">  │ │   │ └── trim-newlines@1.0.0 </tspan>
<tspan x="10" y="810">  │ │   └── semver-regex@1.0.0 </tspan>
<tspan x="10" y="826">  │ ├── minimist@1.2.0 </tspan>
<tspan x="10" y="842">  │ ├── semver@4.3.6 </tspan>
<tspan x="10" y="858">  │ └── semver-truncate@1.1.2 </tspan>
<tspan x="10" y="874">  ├─┬ chalk@1.1.3 </tspan>
<tspan x="10" y="890">  │ ├── ansi-styles@2.2.1 </tspan>
<tspan x="10" y="906">  │ ├── escape-string-regexp@1.0.5 </tspan>
<tspan x="10" y="922">  │ ├─┬ has-ansi@2.0.0 </tspan>
<tspan x="10" y="938">  │ │ └── ansi-regex@2.1.1 </tspan>
<tspan x="10" y="954">  │ ├── strip-ansi@3.0.1 </tspan>
<tspan x="10" y="970">  │ └── supports-color@2.0.0 </tspan>
<tspan x="10" y="986">  ├─┬ each-async@1.1.1 </tspan>
<tspan x="10" y="1002">  │ ├── onetime@1.1.0 </tspan>
<tspan x="10" y="1018">  │ └── set-immediate-shim@1.0.1 </tspan>
<tspan x="10" y="1034">  ├── log-symbols@1.0.2 </tspan>
<tspan x="10" y="1050">  ├── object-values@1.0.0 </tspan>
<tspan x="10" y="1066">  ├── semver@5.3.0 </tspan>
<tspan x="10" y="1082">  ├─┬ twig@0.8.9 </tspan>
<tspan x="10" y="1098">  │ ├─┬ minimatch@3.0.3 </tspan>
<tspan x="10" y="1114">  │ │ └─┬ brace-expansion@1.1.7 </tspan>
<tspan x="10" y="1130">  │ │   ├── balanced-match@0.4.2 </tspan>
<tspan x="10" y="1146">  │ │   └── concat-map@0.0.1 </tspan>
<tspan x="10" y="1162">  │ └─┬ walk@2.3.9 </tspan>
<tspan x="10" y="1178">  │   └── foreachasync@3.0.0 </tspan>
<tspan x="10" y="1194">  └─┬ user-home@2.0.0 </tspan>
<tspan x="10" y="1210">    └── os-homedir@1.0.2</tspan>
</text>
</svg>
